<?xml version="1.0" encoding="UTF-8" standalone="no"?>
<!DOCTYPE svg PUBLIC "-//W3C//DTD SVG 1.1//EN" "http://www.w3.org/Graphics/SVG/1.1/DTD/svg11.dtd">
<svg width="100%" height="100%" viewBox="0 0 512 512" version="1.1" xmlns="http://www.w3.org/2000/svg" xmlns:xlink="http://www.w3.org/1999/xlink" xml:space="preserve" xmlns:serif="http://www.serif.com/" style="fill-rule:evenodd;clip-rule:evenodd;stroke-linecap:round;stroke-linejoin:round;">
    <path d="M512,112L512,400C512,461.814 461.814,512 400,512L112,512C50.186,512 0,461.814 0,400L0,112C0,50.186 50.186,0 112,0L400,0C461.814,0 512,50.186 512,112Z" style="fill:rgb(17,16,20);"/>
    <g transform="matrix(1.161067,0,0,1.161067,-41.23317,-41.23317)">
        <path d="M184,78L76,256L184,434M328,78L436,256L328,434" style="fill:none;fill-rule:nonzero;stroke:rgb(138,43,226);stroke-width:46px;"/>
    </g>
    <g transform="matrix(0.79027,0,0,0.79027,53.690851,51.715176)">
        <circle cx="256" cy="184" r="43" style="fill:rgb(247,243,251);"/>
    </g>
    <g transform="matrix(0.79027,0,0,0.79027,53.690851,51.715176)">
        <path d="M172,376C172,302 209.6,256 256,256C302.4,256 340,302 340,376" style="fill:none;fill-rule:nonzero;stroke:rgb(247,243,251);stroke-width:44px;stroke-linejoin:miter;"/>
    </g>
</svg>
