<?xml version="1.0" encoding="UTF-8" standalone="no"?>
<!DOCTYPE svg PUBLIC "-//W3C//DTD SVG 1.1//EN" "http://www.w3.org/Graphics/SVG/1.1/DTD/svg11.dtd">
<svg width="100%" height="100%" viewBox="0 0 64 64" version="1.1" xmlns="http://www.w3.org/2000/svg" xmlns:xlink="http://www.w3.org/1999/xlink" xml:space="preserve" xmlns:serif="http://www.serif.com/" style="fill-rule:evenodd;clip-rule:evenodd;stroke-linecap:round;stroke-linejoin:round;">
    <path d="M64,14L64,50C64,57.727 57.727,64 50,64L14,64C6.273,64 0,57.727 0,50L0,14C0,6.273 6.273,0 14,0L50,0C57.727,0 64,6.273 64,14Z" style="fill:rgb(17,16,20);"/>
    <g transform="matrix(1.19932,0,0,1.19932,-6.378256,-6.378256)">
        <path d="M23,10L10,32L23,54M41,10L54,32L41,54" style="fill:none;fill-rule:nonzero;stroke:rgb(138,43,226);stroke-width:6px;"/>
    </g>
    <g transform="matrix(0.845042,0,0,0.845042,4.958644,4.958644)">
        <circle cx="32" cy="23" r="5.5" style="fill:rgb(247,243,251);"/>
    </g>
    <g transform="matrix(0.845042,0,0,0.845042,4.958644,4.958644)">
        <path d="M21.5,46.5C21.5,37.2 26.2,31.5 32,31.5C37.8,31.5 42.5,37.2 42.5,46.5" style="fill:none;fill-rule:nonzero;stroke:rgb(247,243,251);stroke-width:5.5px;stroke-linejoin:miter;"/>
    </g>
</svg>
