<?xml version="1.0" encoding="UTF-8" standalone="no"?>
<!DOCTYPE svg PUBLIC "-//W3C//DTD SVG 1.1//EN" "http://www.w3.org/Graphics/SVG/1.1/DTD/svg11.dtd">
<svg width="100%" height="100%" viewBox="0 0 390 96" version="1.1" xmlns="http://www.w3.org/2000/svg" xmlns:xlink="http://www.w3.org/1999/xlink" xml:space="preserve" xmlns:serif="http://www.serif.com/" style="fill-rule:evenodd;clip-rule:evenodd;stroke-linecap:round;stroke-linejoin:round;">
    <g transform="matrix(1,0,0,1,10,10)">
        <g transform="matrix(1.270297,0,0,1,-2.162376,0)">
            <path d="M27,3L8,38L27,73M49,3L68,38L49,73" style="fill:none;fill-rule:nonzero;stroke:rgb(138,43,226);stroke-width:7px;"/>
        </g>
        <g transform="matrix(0.878061,0,0,0.878061,13.22942,0.74486)">
            <circle cx="38" cy="27" r="7" style="fill:rgb(20,18,24);"/>
        </g>
        <g transform="matrix(1.031443,0,0,0.878061,6.914084,0.74486)">
            <path d="M24,58C24,46 30.3,38 38,38C45.7,38 52,46 52,58" style="fill:none;fill-rule:nonzero;stroke:rgb(20,18,24);stroke-width:7px;stroke-linejoin:miter;"/>
        </g>
    </g>
    <g transform="matrix(1,0,0,1,125.940594,64)">
        <text x="0px" y="0px" style="font-family:'NotoSansJP-Bold', 'Noto Sans JP', sans-serif;font-weight:700;font-size:54px;fill:rgb(20,18,24);">s<tspan x="25.542px 58.158px 85.428px 100.656px 131.382px 147.204px 162.432px 187.92px " y="0px 0px 0px 0px 0px 0px 0px 0px ">ocialize</tspan></text>
    </g>
</svg>
