<?xml version="1.0" encoding="UTF-8" standalone="no"?>
<!DOCTYPE svg PUBLIC "-//W3C//DTD SVG 1.1//EN" "http://www.w3.org/Graphics/SVG/1.1/DTD/svg11.dtd">
<svg width="100%" height="100%" viewBox="0 0 64 64" version="1.1" xmlns="http://www.w3.org/2000/svg" xmlns:xlink="http://www.w3.org/1999/xlink" xml:space="preserve" xmlns:serif="http://www.serif.com/" style="fill-rule:evenodd;clip-rule:evenodd;stroke-linejoin:round;stroke-miterlimit:2;">
    <g transform="matrix(1.199016,0,0,1.115385,-6.368499,-3.692308)">
        <path d="M23,6L6,32L23,58L28,54.5L13.7,32L28,9.5L23,6ZM41,6L36,9.5L50.3,32L36,54.5L41,58L58,32L41,6Z" style="fill-rule:nonzero;"/>
    </g>
    <g transform="matrix(0.744594,0,0,0.744594,8.173003,7.986855)">
        <circle cx="32" cy="22.5" r="6"/>
    </g>
    <g transform="matrix(0.744594,0,0,0.744594,8.173003,7.986855)">
        <path d="M18.5,48C18.5,37 24.5,29.5 32,29.5C39.5,29.5 45.5,37 45.5,48L39.5,48C39.5,40.3 36.2,35.5 32,35.5C27.8,35.5 24.5,40.3 24.5,48L18.5,48Z" style="fill-rule:nonzero;"/>
    </g>
</svg>
