<?xml version="1.0" encoding="UTF-8"?>
<svg id="Layer_2" data-name="Layer 2" xmlns="http://www.w3.org/2000/svg" viewBox="0 0 2000 2000">
  <defs>
    <style>
      .cls-1 {
        fill: #121212;
      }

      .cls-2 {
        fill: none;
        stroke: #8a2be2;
        stroke-miterlimit: 10;
        stroke-width: 80px;
      }

      .cls-3 {
        fill: #8a2be2;
      }
    </style>
  </defs>
  <g id="Layer_1-2" data-name="Layer 1">
    <rect class="cls-1" width="2000" height="2000"/>
    <rect class="cls-2" x="254.5" y="254.5" width="1491" height="1491" rx="449.33" ry="449.33"/>
    <g>
      <path class="cls-3" d="M1539,1000c0,46.48-37.68,84.17-84.17,84.17-37.16,0-68.69-24.09-79.84-57.5h-248.42c-10.48,50.03-49.87,89.42-99.9,99.9v244.42c33.41,11.15,57.5,42.68,57.5,79.84,0,46.49-37.69,84.17-84.17,84.17s-84.17-37.68-84.17-84.17c0-37.16,24.09-68.69,57.5-79.84v-244.42c-20.2-4.22-38.66-13.17-54.18-25.62l-100.75,88.53c1.15,4.59,1.77,9.4,1.77,14.35,0,32.31-26.19,58.5-58.5,58.5-7.6,0-14.87-1.45-21.53-4.09l-169.61,149.03c7.71,12.71,12.14,27.62,12.14,43.56,0,46.49-37.69,84.17-84.17,84.17s-84.17-37.68-84.17-84.17,37.69-84.16,84.17-84.16c10.88,0,21.28,2.06,30.82,5.82l175.62-154.32c-1.16-4.59-1.77-9.39-1.77-14.34,0-32.31,26.19-58.5,58.5-58.5,7.6,0,14.86,1.45,21.52,4.09l102.07-89.69c-5.37-10.28-9.39-21.38-11.83-33.06h-295.08c-11.15,33.41-42.69,57.5-79.85,57.5-46.48,0-84.17-37.69-84.17-84.17s37.69-84.17,84.17-84.17c37.16,0,68.7,24.09,79.85,57.5h295.08c3.44-16.45,10.01-31.74,19.06-45.24l-111.64-111.64c-6.01,2.09-12.46,3.22-19.18,3.22-32.31,0-58.5-26.19-58.5-58.5,0-6.72,1.13-13.17,3.22-19.18l-163.59-163.59c-12.87,7.99-28.05,12.6-44.3,12.6-46.48,0-84.17-37.68-84.17-84.17s37.69-84.16,84.17-84.16,84.17,37.68,84.17,84.16c0,10.71-2,20.94-5.65,30.36l167.92,167.92c5.3-1.59,10.92-2.44,16.73-2.44,32.31,0,58.5,26.19,58.5,58.5,0,5.81-.85,11.43-2.44,16.73l112.92,112.92c12.86-8.19,27.26-14.17,42.68-17.39v-286.75c-33.41-11.15-57.5-42.68-57.5-79.85,0-46.48,37.69-84.16,84.17-84.16s84.17,37.68,84.17,84.16c0,37.17-24.09,68.7-57.5,79.85v286.75c10.2,2.13,19.95,5.47,29.11,9.85l93.66-101.83c-2.33-6.32-3.61-13.15-3.61-20.28,0-32.31,26.19-58.5,58.5-58.5,5.41,0,10.66.74,15.63,2.12l147.32-160.16c-5.73-11.36-8.95-24.2-8.95-37.8,0-46.48,37.69-84.16,84.17-84.16s84.17,37.68,84.17,84.16-37.69,84.17-84.17,84.17c-13.42,0-26.11-3.14-37.37-8.74l-145.91,158.63c2.33,6.32,3.61,13.15,3.61,20.28,0,32.31-26.19,58.5-58.5,58.5-5.41,0-10.66-.74-15.63-2.12l-90.45,98.34c13.86,16.17,23.8,35.81,28.32,57.44h248.42c11.15-33.41,42.68-57.5,79.84-57.5,46.49,0,84.17,37.69,84.17,84.17Z"/>
      <circle class="cls-3" cx="1454.83" cy="1450.83" r="84.17"/>
      <circle class="cls-3" cx="1370.67" cy="1145.33" r="58.5"/>
      <circle class="cls-3" cx="1204.33" cy="1297" r="58.5"/>
      <circle class="cls-3" cx="740.17" cy="1450.83" r="58.5"/>
      <circle class="cls-3" cx="498.5" cy="1203.83" r="58.5"/>
      <circle class="cls-3" cx="498.5" cy="761.17" r="58.5"/>
      <circle class="cls-3" cx="761.67" cy="506.83" r="58.5"/>
      <circle class="cls-3" cx="1204.33" cy="506.83" r="58.5"/>
      <circle class="cls-3" cx="1454.83" cy="761.17" r="58.5"/>
    </g>
  </g>
</svg>